<svg id="Capa_1" enable-background="new 0 0 512 512" height="512" viewBox="0 0 512 512" width="512" xmlns="http://www.w3.org/2000/svg"><g><path d="m255.523 161.535c-8.917-.458-141.046-4.837-252.956 129.606-3.422 4.111-3.422 10.402 0 14.513 111.91 134.443 244.039 130.064 252.956 129.606.322-.017.633-.017.955 0 8.917.458 141.046 4.837 252.956-129.606 3.422-4.111 3.422-10.402 0-14.513-111.91-134.444-244.039-130.064-252.956-129.606-.323.016-.633.016-.955 0z" fill="#d8ecfe"/><path d="m509.437 305.655c-73.49 88.287-155.69 116.708-206.003 125.685 51.64-19.105 114.066-55.547 171.71-124.801 3.835-4.607 3.835-11.671 0-16.288-57.665-69.264-120.102-105.706-171.751-124.811 50.303 8.977 132.533 37.388 206.044 125.695 3.414 4.114 3.414 10.407 0 14.52z" fill="#c4e2ff"/><circle cx="256" cy="298.397" fill="#f9f7f8" r="136.906"/><path d="m392.904 298.395c0 75.608-61.295 136.903-136.904 136.903-23.588 0-45.789-5.964-65.161-16.473 14.365 5.121 29.84 7.907 45.964 7.907 75.619 0 136.914-61.295 136.914-136.904 0-52.01-28.997-97.243-71.711-120.41 52.975 18.891 90.898 69.513 90.898 128.977z" fill="#efedef"/><circle cx="256" cy="298.37" fill="#9c9c9c" r="99.639"/><path d="m355.639 298.375c0 55.023-44.606 99.639-99.639 99.639-21.357 0-41.141-6.725-57.357-18.159 12.072 5.203 25.378 8.082 39.362 8.082 55.033 0 99.639-44.617 99.639-99.639 0-33.696-16.719-63.485-42.323-81.5 35.475 15.238 60.318 50.508 60.318 91.577z" fill="#838383"/><circle cx="256" cy="298.37" fill="#5a5a5a" r="63.354"/><path d="m319.351 298.375c0 34.982-28.359 63.352-63.351 63.352-17.717 0-33.727-7.27-45.223-18.992 8.514 4.257 18.118 6.653 28.277 6.653 34.992 0 63.362-28.37 63.362-63.352 0-17.275-6.92-32.956-18.149-44.38 20.802 10.385 35.084 31.886 35.084 56.719z" fill="#444"/><circle cx="290.056" cy="265.327" fill="#f9f7f8" r="22.968"/><path d="m313.028 265.326c0 12.689-10.283 22.971-22.971 22.971-7.609 0-14.345-3.691-18.519-9.388.514.041 1.028.062 1.553.062 12.689 0 22.971-10.283 22.971-22.971 0-5.08-1.645-9.779-4.452-13.583 11.968.791 21.418 10.745 21.418 22.909z" fill="#efedef"/><path d="m492.558 191.932c-9.469-7.482-19.26-14.535-29.315-21.139l18.293-23.511c2.543-3.269 1.955-7.981-1.314-10.525-3.27-2.543-7.98-1.955-10.525 1.314l-19.203 24.681c-16.639-10.08-33.913-18.942-51.596-26.468l12.439-27.867c1.688-3.783-.009-8.217-3.792-9.906-3.782-1.688-8.217.01-9.906 3.792l-12.662 28.367c-13.228-5.046-26.644-9.351-40.156-12.855-2-.518-3.999-1.015-5.998-1.499l6.948-30.419c.922-4.038-1.604-8.059-5.642-8.981-4.037-.924-8.059 1.603-8.981 5.642l-6.969 30.513c-19.92-3.994-39.809-6.278-59.596-6.869v-29.577c0-4.142-3.358-7.5-7.5-7.5s-7.5 3.358-7.5 7.5v29.454c-20.082.276-40.039 2.311-59.796 6.116l-6.77-29.638c-.922-4.039-4.943-6.563-8.981-5.642-4.038.922-6.564 4.943-5.642 8.981l6.727 29.45c-15.609 3.708-31.113 8.498-46.391 14.295l-12.203-27.339c-1.688-3.782-6.122-5.482-9.906-3.792-3.782 1.688-5.48 6.123-3.792 9.906l11.972 26.822c-17.727 7.514-35.089 16.392-51.883 26.544l-18.449-23.712c-2.542-3.268-7.255-3.858-10.525-1.314-3.269 2.543-3.857 7.256-1.314 10.525l17.532 22.534c-10.507 6.878-20.767 14.253-30.719 22.117-3.25 2.568-3.803 7.285-1.235 10.535 2.569 3.25 7.285 3.803 10.536 1.233 33.023-26.095 70.263-46.992 109.822-61.387 20.046-7.295 40.719-12.909 61.745-16.536 47-8.108 94.361-5.469 140.745 6.559 50.522 13.101 99.695 37.779 142.202 71.366 1.377 1.088 3.017 1.616 4.645 1.616 2.215 0 4.41-.978 5.89-2.851 2.567-3.251 2.015-7.968-1.235-10.535z" fill="#5a5a5a"/><g><g><path d="m63.03.332h-51.878c-5.626 0-10.587 4.936-10.619 10.562l.102 51.833c-.017 3.045 2.447 5.523 5.492 5.523h24.197c3.033 0 5.492-2.459 5.492-5.492v-23.86c0-1.852 1.502-3.354 3.354-3.354h23.86c3.033 0 5.492-2.459 5.492-5.492v-24.228c0-3.033-2.459-5.492-5.492-5.492z" fill="#9c9c9c"/></g><path d="m449.072.332h51.878c5.626 0 10.485 4.544 10.516 10.17v52.225c.017 3.045-2.447 5.523-5.492 5.523h-24.197c-3.033 0-5.492-2.459-5.492-5.492v-23.86c0-1.852-1.502-3.354-3.354-3.354h-23.859c-3.033 0-5.492-2.459-5.492-5.492v-24.228c0-3.033 2.459-5.492 5.492-5.492z" fill="#9c9c9c"/><path d="m511.463 62.723c.021 3.045-2.448 5.524-5.493 5.524h-20.523c3.045 0 5.503-2.479 5.493-5.524l-.298-52.217c-.031-5.627-4.598-10.174-10.225-10.174h20.533c5.627 0 10.483 4.547 10.513 10.174z" fill="#838383"/><g><path d="m62.638 511.668h-51.878c-5.626 0-10.196-4.544-10.227-10.17v-52.225c-.017-3.045 2.157-5.523 5.202-5.523h24.197c3.033 0 5.492 2.459 5.492 5.492v23.859c0 1.852 1.502 3.354 3.354 3.354h23.859c3.033 0 5.492 2.459 5.492 5.492v24.228c.002 3.034-2.457 5.493-5.491 5.493z" fill="#9c9c9c"/></g><g><path d="m449.362 511.668h51.878c5.626 0 10.196-4.544 10.227-10.17v-52.225c.017-3.045-2.157-5.523-5.202-5.523h-24.197c-3.033 0-5.492 2.459-5.492 5.492v23.859c0 1.852-1.502 3.354-3.354 3.354h-23.859c-3.033 0-5.492 2.459-5.492 5.492v24.228c-.002 3.034 2.457 5.493 5.491 5.493z" fill="#9c9c9c"/><path d="m511.464 449.273v52.227c-.031 5.627-4.598 10.164-10.225 10.164h-20.533c5.627 0 10.195-4.536 10.225-10.164l.298-52.227c.01-3.045-2.448-5.524-5.493-5.524h20.523c3.045 0 5.226 2.479 5.205 5.524z" fill="#838383"/></g></g></g></svg>